<?xml version="1.0" encoding="iso-8859-1"?>
<!-- Generator: Adobe Illustrator 16.0.0, SVG Export Plug-In . SVG Version: 6.00 Build 0)  -->
<!DOCTYPE svg PUBLIC "-//W3C//DTD SVG 1.1//EN" "http://www.w3.org/Graphics/SVG/1.1/DTD/svg11.dtd">
<svg xmlns="http://www.w3.org/2000/svg" xmlns:xlink="http://www.w3.org/1999/xlink" version="1.1" id="Capa_1" x="0px" y="0px" width="512px" height="512px" viewBox="0 0 235.541 235.54" style="enable-background:new 0 0 235.541 235.54;" xml:space="preserve">
<g>
	<path d="M229.073,111.301h-9.967c-1.49-23.535-10.98-44.871-25.828-61.374l14.72-14.727c2.521-2.519,2.521-6.608,0-9.131   c-2.524-2.517-6.604-2.517-9.117,0L184.069,40.87c-16.281-14.068-37.028-22.996-59.847-24.441V6.471   c0-3.564-2.887-6.456-6.452-6.456c-3.565,0-6.452,2.892-6.452,6.456v9.958c-50.904,3.22-91.678,43.985-94.882,94.88h-9.97   c-3.569,0-6.466,2.889-6.466,6.454c0,3.566,2.897,6.464,6.466,6.464h9.97c3.204,50.891,43.978,91.643,94.882,94.864v9.975   c0,3.578,2.887,6.46,6.452,6.46c3.564,0,6.452-2.897,6.452-6.452v-9.975c22.818-1.45,43.565-10.367,59.847-24.425l14.812,14.803   c1.251,1.251,2.905,1.88,4.553,1.88c1.659,0,3.314-0.629,4.564-1.88c2.521-2.528,2.521-6.616,0-9.137l-14.72-14.723   c14.848-16.52,24.338-37.854,25.828-61.374h9.967c3.57,0,6.468-2.905,6.468-6.472C235.541,114.185,232.643,111.301,229.073,111.301   z M42.148,113.627c13.904-12.263,42.745-33.506,75.622-33.506c8.119,0,15.946,1.461,23.427,3.619l-7.397,7.388   c-4.701-2.825-10.143-4.562-16.03-4.562c-17.23,0-31.206,13.976-31.206,31.19c0,17.252,13.968,31.218,31.206,31.218   c5.887,0,11.345-1.731,16.054-4.568l7.373,7.39c-7.481,2.148-15.301,3.619-23.427,3.619c-32.781,0-61.665-21.268-75.622-33.534   c0.968-1.127,1.607-2.529,1.607-4.124C43.755,116.162,43.116,114.751,42.148,113.627z M143.297,135.632   c3.559-5.073,5.675-11.204,5.675-17.877c0-6.656-2.124-12.794-5.687-17.857l11.361-11.363   c16.694,7.318,30.388,17.759,38.743,25.092c-0.966,1.125-1.61,2.527-1.61,4.128c0,1.603,0.645,3.014,1.61,4.14   c-8.339,7.33-22.032,17.789-38.728,25.103L143.297,135.632z M205.874,107.456c-7.698-7.271-22.394-19.595-41.385-28.741   l19.673-19.673C195.875,72.287,203.726,88.983,205.874,107.456z M111.318,29.327v7.963c0,3.564,2.887,6.452,6.452,6.452   c3.564,0,6.452-2.887,6.452-6.452v-7.963c19.244,1.393,36.801,8.898,50.738,20.65L151.577,73.36   c-10.471-3.703-21.816-6.153-33.822-6.153c-40.862,0-74.863,27.758-88.113,40.265C34.524,65.472,68.816,32.407,111.318,29.327z    M124.222,206.195v-7.959c0-3.555-2.887-6.44-6.452-6.44c-3.565,0-6.452,2.886-6.452,6.44v7.959   c-42.502-3.082-76.77-36.147-81.647-78.138c13.252,12.499,47.251,40.267,88.115,40.267c11.974,0,23.351-2.448,33.822-6.143   l23.367,23.351C161.039,197.286,143.466,204.8,124.222,206.195z M164.481,156.808c18.999-9.138,33.679-21.48,41.393-28.75   c-2.147,18.486-9.998,35.189-21.744,48.422L164.481,156.808z" fill="#006DF0"/>
</g>
<g>
</g>
<g>
</g>
<g>
</g>
<g>
</g>
<g>
</g>
<g>
</g>
<g>
</g>
<g>
</g>
<g>
</g>
<g>
</g>
<g>
</g>
<g>
</g>
<g>
</g>
<g>
</g>
<g>
</g>
</svg>
