<?xml version="1.0" encoding="iso-8859-1"?>
<!-- Generator: Adobe Illustrator 19.0.0, SVG Export Plug-In . SVG Version: 6.00 Build 0)  -->
<svg xmlns="http://www.w3.org/2000/svg" xmlns:xlink="http://www.w3.org/1999/xlink" version="1.1" id="Layer_1" x="0px" y="0px" viewBox="0 0 432 432" style="enable-background:new 0 0 432 432;" xml:space="preserve" width="512px" height="512px">
<g>
	<g>
		<path d="M358,56h-68c-6.628,0-12,5.372-12,12s5.372,12,12,12h56v328H86V80h56c6.628,0,12-5.372,12-12s-5.372-12-12-12H74    c-6.628,0-12,5.372-12,12v352c0,6.628,5.372,12,12,12h284c6.624,0,12-5.372,12-12V68C370,61.372,364.628,56,358,56z" fill="#006DF0"/>
	</g>
</g>
<g>
	<g>
		<path d="M322,92H110c-4.42,0-8,3.584-8,8v284c0,4.416,3.58,8,8,8h130.524c2.028,0,3.98-0.768,5.464-2.152l81.472-76.044    c1.62-1.512,2.54-3.628,2.54-5.848V100C330,95.584,326.416,92,322,92z M314,304.48L237.372,376H118V108h196V304.48z" fill="#006DF0"/>
	</g>
</g>
<g>
	<g>
		<path d="M314,292h-76c-4.416,0-8,3.584-8,8v76c0,4.416,3.584,8,8,8c4.416,0,8-3.584,8-8v-68h68c4.416,0,8-3.584,8-8    C322,295.584,318.416,292,314,292z" fill="#006DF0"/>
	</g>
</g>
<g>
	<g>
		<path d="M286,36H146c-6.628,0-12,5.372-12,12v44c0,6.628,5.372,12,12,12s12-5.372,12-12V60h116v32c0,6.628,5.372,12,12,12    c6.624,0,12-5.372,12-12V48C298,41.372,292.628,36,286,36z" fill="#006DF0"/>
	</g>
</g>
<g>
	<g>
		<path d="M282.408,56c-4.416,0-8,3.584-8,8v28h-116.82V64c0-4.416-3.58-8-8-8c-4.416,0-8,3.584-8,8v36c0,4.416,3.584,8,8,8h132.82    c4.42,0,8-3.584,8-8V64C290.408,59.584,286.824,56,282.408,56z" fill="#006DF0"/>
	</g>
</g>
<g>
	<g>
		<path d="M216,0c-25.364,0-46,20.636-46,46c0,6.628,5.372,12,12,12s12-5.372,12-12c0-12.128,9.868-22,22-22    c12.132,0,22,9.872,22,22c0,6.628,5.372,12,12,12c6.624,0,12-5.372,12-12C262,20.636,241.364,0,216,0z" fill="#006DF0"/>
	</g>
</g>
<g>
	<g>
		<path d="M214,148c-6.6,0-12,5.4-12,12v48c0,6.6,5.4,12,12,12c6.6,0,12-5.4,12-12v-48C226,153.4,220.6,148,214,148z" fill="#006DF0"/>
	</g>
</g>
<g>
	<g>
		<path d="M238,172h-48c-6.6,0-12,5.4-12,12c0,6.6,5.4,12,12,12h48c6.6,0,12-5.4,12-12C250,177.4,244.6,172,238,172z" fill="#006DF0"/>
	</g>
</g>
<g>
	<g>
		<path d="M226,256h-76c-4.42,0-8,3.584-8,8c0,4.416,3.58,8,8,8h76c4.416,0,8-3.584,8-8C234,259.584,230.416,256,226,256z" fill="#006DF0"/>
	</g>
</g>
<g>
	<g>
		<path d="M278,256h-20c-4.416,0-8,3.584-8,8c0,4.416,3.584,8,8,8h20c4.416,0,8-3.584,8-8C286,259.584,282.416,256,278,256z" fill="#006DF0"/>
	</g>
</g>
<g>
	<g>
		<path d="M200.664,292H150c-4.42,0-8,3.584-8,8c0,4.416,3.58,8,8,8h50.664c4.42,0,8-3.584,8-8    C208.664,295.584,205.084,292,200.664,292z" fill="#006DF0"/>
	</g>
</g>
<g>
</g>
<g>
</g>
<g>
</g>
<g>
</g>
<g>
</g>
<g>
</g>
<g>
</g>
<g>
</g>
<g>
</g>
<g>
</g>
<g>
</g>
<g>
</g>
<g>
</g>
<g>
</g>
<g>
</g>
</svg>
