<?xml version="1.0" encoding="iso-8859-1"?>
<!-- Generator: Adobe Illustrator 19.0.0, SVG Export Plug-In . SVG Version: 6.00 Build 0)  -->
<svg xmlns="http://www.w3.org/2000/svg" xmlns:xlink="http://www.w3.org/1999/xlink" version="1.1" id="Layer_1" x="0px" y="0px" viewBox="0 0 491.52 491.52" style="enable-background:new 0 0 491.52 491.52;" xml:space="preserve" width="512px" height="512px">
<g>
	<g>
		<g>
			<path d="M470.804,307.2H303.196c-8.479-23.777-31.007-40.96-57.672-40.96c-24.044,0-44.687,14.008-54.763,34.161     c-40.919-19.948-68.117-61.379-68.117-106.947c0-5.898,1.946-19.886,5.366-32.707l132.301,72.868     c0.983,0.533,1.987,0.983,3.031,1.352l50.401,17.879l19.354,10.158c4.157,2.191,8.643,3.236,13.046,3.236     c10.179,0,20.029-5.509,25.088-15.135l14.418-27.525c7.229-13.763,1.905-30.863-11.899-38.134l-19.354-10.138l-43.356-31.293     c-0.676-0.471-1.372-0.922-2.109-1.331L157.788,59.453c-0.143-0.84,0-1.7-0.266-2.499c-1.618-5.202-5.243-9.544-10.076-12.042     L65.71,2.314c-4.854-2.519-10.527-3.011-15.708-1.331c-5.222,1.659-9.544,5.366-12.022,10.24L2.447,81.285     c-5.1,10.076-1.085,22.385,8.991,27.505l77.558,39.485c-4.997,17.777-7.311,36.209-7.311,45.179     c0,65.352,41.533,123.965,102.4,148.275v47.391c-4.424,0-8.724,1.434-12.288,4.096l-57.283,42.906     c-10.609,7.946-14.909,21.729-10.711,34.304c4.178,12.575,15.893,21.012,29.123,21.012l225.198,0.082     c13.251,0,24.945-8.458,29.143-21.013c4.178-12.575-0.102-26.358-10.711-34.304l-57.303-42.988     c-3.543-2.662-7.864-4.096-12.288-4.096v-40.96h163.84c11.305,0,20.48-9.175,20.48-20.48     C491.285,316.375,482.109,307.2,470.804,307.2z" fill="#006DF0"/>
			<path d="M410.681,267.399l19.374,16.261c2.437,2.048,5.427,3.052,8.397,3.052c3.543,0,7.066-1.434,9.646-4.239l14.868-16.282     c2.949-3.236,4.076-7.721,3.031-11.96l-4.956-19.825c-0.84-3.338-2.949-6.185-5.878-7.987l-16.2-9.912     c-5.448-3.297-12.431-2.232-16.63,2.54l-13.066,14.848c-2.089,2.396-3.236,5.448-3.236,8.622v14.868     C406.032,261.255,407.732,264.9,410.681,267.399z" fill="#006DF0"/>
		</g>
	</g>
</g>
<g>
</g>
<g>
</g>
<g>
</g>
<g>
</g>
<g>
</g>
<g>
</g>
<g>
</g>
<g>
</g>
<g>
</g>
<g>
</g>
<g>
</g>
<g>
</g>
<g>
</g>
<g>
</g>
<g>
</g>
</svg>
