<?xml version="1.0" encoding="iso-8859-1"?>
<!-- Generator: Adobe Illustrator 18.1.1, SVG Export Plug-In . SVG Version: 6.00 Build 0)  -->
<svg version="1.1" id="Capa_1" xmlns="http://www.w3.org/2000/svg" xmlns:xlink="http://www.w3.org/1999/xlink" x="0px" y="0px"
	 viewBox="0 0 137.118 137.118" style="enable-background:new 0 0 137.118 137.118;" xml:space="preserve">
<g>
	<path style="fill:#010002;" d="M106.281,30.144c-5.523,0-10.002,4.479-10.002,10.002c0,2.252,0.754,4.324,2.011,5.996
		c-5.326,11.528-9.915,25.28-12.06,23.135c-2.253-2.253,2.322-28.632,4.681-42.325c3.189-1.672,5.368-5.009,5.368-8.859
		c0-5.523-4.478-10.002-10.002-10.002c-5.523,0-10.002,4.479-10.002,10.002c0,2.849,1.198,5.414,3.11,7.236
		C76.683,39.955,73.136,63.15,69.141,63.15c-3.275,0-3.073-29.902-3.248-45.614c2.103-1.834,3.438-4.526,3.438-7.534
		C69.331,4.479,64.853,0,59.329,0c-5.523,0-10.002,4.479-10.002,10.002c0,3.305,1.611,6.227,4.082,8.048
		c-0.857,16.763,0.303,46.065-4.088,45.577c-4.789-0.532-8.861-30.875-10.919-43.201c1.515-1.753,2.437-4.032,2.437-6.53
		c0-5.523-4.479-10.002-10.002-10.002S20.835,8.372,20.835,13.896c0,3.623,1.933,6.786,4.817,8.541
		c2.887,36.874,5.558,55.589,5.558,55.589c-2.187,2.753-5.066,6.133-5.066,6.133c-8.316,9.191-4.377,15.757-4.377,15.757
		c7.004,12.254,21.385,28.448,21.385,28.448c6.129,5.252,2.627,8.316,2.627,8.316l42.453,0.438l2.334-7.879
		c9.629-18.382,6.418-44.643,6.418-44.643c0.139-1.486,6.967-21.462,11.226-34.638c4.6-0.9,8.073-4.949,8.073-9.812
		C116.283,34.623,111.805,30.144,106.281,30.144z M22.905,13.895c0-4.379,3.552-7.93,7.932-7.93s7.932,3.551,7.932,7.93
		c0,1.308-0.322,2.539-0.883,3.626c-0.27-1.384-0.485-2.193-0.639-2.217c-0.972-4.536-10.401-13.332-11.901,3.168
		c0.031,0.414,0.063,0.813,0.094,1.223C23.884,18.247,22.905,16.188,22.905,13.895z M78.345,18.092c0-4.379,3.552-7.93,7.932-7.93
		s7.932,3.551,7.932,7.93c0,2.43-1.096,4.602-2.817,6.057c0.512-2.998,0.832-4.976,0.805-5.292c-0.586-6.804-4.798-7.711-9.775-5.15
		c-0.712,0.366-1.57,3.956-2.552,9.047C78.915,21.444,78.345,19.837,78.345,18.092z M51.397,10.002c0-4.379,3.552-7.93,7.932-7.93
		s7.932,3.551,7.932,7.93c0,1.676-0.523,3.229-1.411,4.509c-0.056-3.103-0.146-5.307-0.316-6.074
		c-0.85-3.846-7.49-7.094-9.998-1.684c-1.047,0.587-1.626,3.917-1.968,8.689C52.226,14.021,51.397,12.11,51.397,10.002z
		 M81.219,101.304c-0.536,0.533-5.627,5.463-5.627,5.463s-0.68,0.683-0.68-0.22c0.001-0.907,0.001-2.349,0.001-2.349
		s-0.392,0.002-0.993,0.001c-1.852,0.001-5.459,0.001-6.841,0.002c0,0-0.062-0.006-0.128-0.035c0,0.028,0,0.072,0,0.098
		c0.014,0.066,0.002,0.119,0,0.123c0,0.011,0,0.031,0,0.041c0,0,0.015,0.057,0,0.126c0,1.501,0,4.808,0,6.663
		c0.002,0.669,0,1.105,0,1.105s1.797,0.001,2.542,0c0.742-0.001,0.061,0.646,0.061,0.646l-5.604,5.451c0,0-0.37,0.432-0.759,0.045
		c-0.533-0.535-5.463-5.625-5.463-5.625s-0.683-0.681,0.221-0.681c0.906,0.001,2.349,0.001,2.349,0.001s-0.003-0.392-0.002-0.993
		c-0.001-1.852-0.001-5.459-0.001-6.841v-0.002c0-0.042,0-0.108,0-0.158c-0.065,0.029-0.125,0.034-0.125,0.034
		c-1.382,0-4.989,0-6.844-0.001c-0.599,0.001-0.992,0-0.992,0s0.003,1.442,0.003,2.348c-0.002,0.902-0.68,0.222-0.68,0.222
		s-5.09-4.929-5.626-5.464c-0.388-0.389,0.044-0.76,0.044-0.76l5.451-5.604c0,0,0.648-0.684,0.646,0.061
		c0.002,0.744,0.002,2.542,0.002,2.542s0.436-0.001,1.105-0.003c1.92,0.003,5.408,0.002,6.829,0.002c0,0,0.092-0.023,0.186,0.02
		c0-3.025,0.001-6.076,0.001-6.989c-0.001-0.599,0-0.992,0-0.992s-1.442,0.002-2.348,0.003c-0.902-0.002-0.222-0.68-0.222-0.68
		s4.929-5.09,5.464-5.627c0.389-0.387,0.76,0.044,0.76,0.044l5.604,5.452c0,0,0.684,0.648-0.061,0.646
		c-0.744,0.002-2.542,0.002-2.542,0.002s0.001,0.435,0.003,1.105c-0.002,0.95-0.002,4.014-0.002,7.037
		c0.096-0.046,0.189-0.021,0.189-0.021c1.42,0,4.909,0,6.828,0c0.67-0.002,1.105,0,1.105,0s0.001-1.797,0-2.541
		c0-0.743,0.646-0.061,0.646-0.061l5.452,5.604C81.173,100.545,81.604,100.916,81.219,101.304z M108.968,47.599
		c1.605-5.03,2.68-8.648,2.582-9.098c-0.804-3.693-5.064-5.865-6.646-3.94c-1.888,2.299-3.768,5.659-5.579,9.395
		c-0.621-1.131-0.976-2.429-0.976-3.811c0-4.379,3.552-7.93,7.932-7.93s7.932,3.551,7.932,7.93
		C114.213,43.58,112.024,46.497,108.968,47.599z"/>
</g>
<g>
</g>
<g>
</g>
<g>
</g>
<g>
</g>
<g>
</g>
<g>
</g>
<g>
</g>
<g>
</g>
<g>
</g>
<g>
</g>
<g>
</g>
<g>
</g>
<g>
</g>
<g>
</g>
<g>
</g>
</svg>
