<?xml version="1.0" encoding="iso-8859-1"?>
<!-- Generator: Adobe Illustrator 18.1.1, SVG Export Plug-In . SVG Version: 6.00 Build 0)  -->
<svg xmlns="http://www.w3.org/2000/svg" xmlns:xlink="http://www.w3.org/1999/xlink" version="1.1" id="Capa_1" x="0px" y="0px" viewBox="0 0 16.625 16.625" style="enable-background:new 0 0 16.625 16.625;" xml:space="preserve" width="512px" height="512px">
<g>
	<g>
		<circle cx="6.485" cy="10.562" r="0.93" fill="#006DF0"/>
		<circle cx="10.53" cy="10.562" r="0.93" fill="#006DF0"/>
		<path d="M5.917,4.525l1.727-0.01v1.728l1.498,0.014c0.007,0,0.014-0.007,0.014-0.014V4.516h1.691    l0.014-1.498L9.156,3.004V1.327l-1.522,0.01l0.011,1.668H5.907L5.917,4.525z" fill="#006DF0"/>
		<path d="M13.132,2.834l0.214-1.192C13.346,0.737,12.61,0,11.704,0H4.782C3.877,0,3.141,0.737,3.143,1.677    l0.179,1.316C2.418,3.785-0.551,7.066,1.194,14.889c0,0,1.64,0.147,2.161-1.193c0.266-0.687,0.028-1.923,0.194-1.771    c0.366,2.632,2.63,4.7,4.618,4.7c2.326,0,4.525-2.278,4.913-4.696c0.165-0.151,0.195,1.747,0.275,1.903    c0.976,1.888,1.714,1.057,1.714,1.057C17.961,6.671,12.954,2.656,13.132,2.834z M4.782,0.538h6.922    c0.608,0,1.104,0.495,1.108,1.056l-0.92,4.521c0,0.606-0.496,1.103-1.104,1.103H5.47c-0.108,0-0.211-0.02-0.31-0.05    C4.889,7.003,4.662,6.804,4.476,6.577c-0.07-0.15-0.113-0.317-0.114-0.499L3.679,1.642C3.679,1.033,4.174,0.538,4.782,0.538z     M13.021,10.963c-0.063,0.409-0.221,0.577-0.311,0.641l-0.084,0.061l-0.014,0.103c-0.317,2.248-2.328,4.374-4.446,4.374    c-1.764,0-3.856-1.964-4.148-4.369l-0.012-0.107l-0.085-0.062c-0.109-0.08-0.251-0.256-0.316-0.67    c-0.151-0.537-0.211-1.132-0.167-1.226c0,0,0.021,0,0.067,0.022c0,0,0.311-0.431,0.295-0.51c0.303-0.343,0.638-0.661,1.007-0.941    C5.766,8.54,7.054,8.79,8.483,8.79c1.005,0,2.076-0.131,3.144-0.465c0.446,0.357,0.842,0.771,1.189,1.218l0.148,0.197    c0.075,0.104,0.149,0.207,0.221,0.313C13.168,10.302,13.111,10.636,13.021,10.963z" fill="#006DF0"/>
	</g>
</g>
<g>
</g>
<g>
</g>
<g>
</g>
<g>
</g>
<g>
</g>
<g>
</g>
<g>
</g>
<g>
</g>
<g>
</g>
<g>
</g>
<g>
</g>
<g>
</g>
<g>
</g>
<g>
</g>
<g>
</g>
</svg>
