<?xml version="1.0" encoding="iso-8859-1"?>
<!-- Generator: Adobe Illustrator 16.0.0, SVG Export Plug-In . SVG Version: 6.00 Build 0)  -->
<!DOCTYPE svg PUBLIC "-//W3C//DTD SVG 1.1//EN" "http://www.w3.org/Graphics/SVG/1.1/DTD/svg11.dtd">
<svg version="1.1" id="Capa_1" xmlns="http://www.w3.org/2000/svg" xmlns:xlink="http://www.w3.org/1999/xlink" x="0px" y="0px"
	 width="262.829px" height="262.829px" viewBox="0 0 262.829 262.829" style="enable-background:new 0 0 262.829 262.829;"
	 xml:space="preserve">
<g>
	<g>
		<path d="M236.98,23.871c-4.263-6.746-8.525-13.489-12.798-20.234C223.396,2.375,222.419,0,220.666,0c-0.558,0-1.124,0-1.681,0
			c-25.36,0-50.73,0-76.074,0c-30.649,0-61.276,0-91.922,0c-3.683,0-7.365,0-11.05,0c-0.743,0-1.496,0.406-1.855,1.063
			c-3.068,5.575-6.144,11.149-9.212,16.724c-1.651,2.997-3.307,5.998-4.958,8.992c-0.456,0.827-0.961,1.585-0.961,2.559
			c0,6.73,0,13.46,0,20.19c0,31.939,0,63.879,0,95.821c0,27.491,0,54.987,0,82.47c0,2.094,0,4.173,0,6.257
			c0,1.134,0.759,1.905,1.417,2.739c2.016,2.558,4.027,5.093,6.042,7.638c4.528,5.718,9.058,11.444,13.586,17.15
			c1.262,1.597,3.386,1.176,5.229,1.176c27.68,0,55.357,0,83.035,0c26.641,0,53.281,0,79.921,0c0.642,0,1.291,0,1.942,0
			c0.341,0.058,0.693-0.01,1.039-0.174c0.096-0.047,0.148-0.109,0.227-0.156c0.132-0.101,0.277-0.147,0.404-0.295
			c4.088-4.397,8.178-8.812,12.273-13.206c2.703-2.908,5.406-5.817,8.11-8.726c1.013-1.102,3.7-3.129,3.7-4.817
			c0-5.503,0-11.014,0-16.506c0-31.023,0-62.059,0-93.09c0-28.961,0-57.919,0-86.883c0-2.868,0-5.735,0-8.604
			C239.889,27.74,238.335,26.011,236.98,23.871z M222.892,230.438H39.915V8.023h182.987v222.415H222.892z"/>
		<path d="M100.609,84.058c13.53,0.585,48.328-0.396,62.842,0c10.631,0.291,20.305-7.347,19.386-18.947
			c-0.922-11.612,0-56.765,0-56.765h-47.412c-2.226-0.176-4.456-0.149-6.679,0H80.753c0,0,0,47.09,0,56.765
			C80.753,74.769,87.073,83.473,100.609,84.058z M96.259,43.701c0.399-12.17,8.662-22.454,19.284-27.661
			c21.772-10.684,51.525,3.58,51.798,29.097c-0.125,12.26-7.38,22.743-18.025,28.462c-11.213,6.026-25.308,5.488-36.305-0.688
			C102.48,66.998,95.863,55.795,96.259,43.701z"/>
		<path d="M158.784,127.707c-7.349,0-9.982,2.436-9.982,8.483c3.547,13.554,21.438,20.726,21.438,25.732
			c0,0.673-0.714,11.455-7.895,16.168c-0.468,0.577-5.176,1.197-6.698,10.048c-0.524,2.95,5.648,14.299,12.44,14.299
			c17.004,0,30.794-16.714,30.794-37.354c0-10.32-3.208-23.065-11.092-29.838C179.877,128.492,167.289,127.707,158.784,127.707z"/>
		<path d="M155.006,104.646c2.719,0,4.934,4.299,4.934,9.601s-2.215,9.602-4.934,9.602c-2.729,0-4.935-4.3-4.935-9.602
			S152.276,104.646,155.006,104.646z"/>
		<path d="M167.19,106.61c2.161,0,3.921,3.42,3.921,7.638c0,4.217-1.76,7.639-3.921,7.639c-2.169,0-3.922-3.421-3.922-7.639
			C163.269,110.03,165.021,106.61,167.19,106.61z"/>
		<ellipse cx="189.121" cy="123.978" rx="2.579" ry="5.021"/>
		<path d="M179.373,112.98c1.732,0,3.149,2.745,3.149,6.131c0,3.388-1.417,6.134-3.149,6.134c-1.743,0-3.155-2.746-3.155-6.134
			C176.218,115.725,177.63,112.98,179.373,112.98z"/>
		<path d="M91.842,202.448c6.795,0,12.961-11.354,12.448-14.305c-1.538-8.845-6.241-9.465-6.703-10.047
			c-7.182-4.714-7.895-15.496-7.895-16.169c0-5.002,17.895-12.184,21.44-25.732c0-6.047-2.637-8.483-9.986-8.483
			c-8.504,0-21.103,0.785-29,7.533c-7.891,6.777-11.101,19.523-11.101,29.844C61.046,185.724,74.833,202.448,91.842,202.448z"/>
		<ellipse cx="104.927" cy="114.248" rx="4.929" ry="9.601"/>
		<ellipse cx="92.739" cy="114.248" rx="3.919" ry="7.638"/>
		<ellipse cx="70.802" cy="123.978" rx="2.575" ry="5.021"/>
		<ellipse cx="80.559" cy="119.113" rx="3.15" ry="6.133"/>
		<path d="M131.819,66.486c4.689,0,8.483-3.795,8.483-8.48c0-3.276-1.875-6.087-4.59-7.5c-0.281-2.532-0.61-5.052-0.883-7.559
			c-0.709-6.52-1.343-13.095-2.506-19.548c-0.231-1.282-2.002-0.84-2.11,0.283c-0.835,8.918-1.452,17.847-2.189,26.769
			c-2.769,1.399-4.688,4.237-4.688,7.548C123.336,62.691,127.131,66.486,131.819,66.486z"/>
	</g>
</g>
<g>
</g>
<g>
</g>
<g>
</g>
<g>
</g>
<g>
</g>
<g>
</g>
<g>
</g>
<g>
</g>
<g>
</g>
<g>
</g>
<g>
</g>
<g>
</g>
<g>
</g>
<g>
</g>
<g>
</g>
</svg>
